<?xml version="1.0" encoding="utf-8"?>
<!-- Generator: Adobe Illustrator 27.8.0, SVG Export Plug-In . SVG Version: 6.00 Build 0)  -->
<svg version="1.1" xmlns="http://www.w3.org/2000/svg" xmlns:xlink="http://www.w3.org/1999/xlink" x="0px" y="0px"
	 viewBox="0 0 16 16" style="enable-background:new 0 0 16 16;" xml:space="preserve">
<style type="text/css">
	.st0{stroke:#000000;stroke-miterlimit:10;}
	.st1{fill:#FFFFFF;}
</style>
<g id="图层_2">
	<rect y="-0.2" class="st0" width="16.4" height="16.4"/>
</g>
<g id="图层_1">
	<g>
		<path class="st1" d="M6.4,6.5c0-0.2,0.1-0.4,0.2-0.6C6.8,5.8,7,5.7,7.2,5.7c0.2,0,0.4,0.1,0.6,0.2C8,6.1,8.1,6.3,8.1,6.5
			S8,7,7.8,7.1S7.5,7.3,7.2,7.3C7,7.3,6.8,7.3,6.7,7.1S6.4,6.8,6.4,6.5z"/>
		<path class="st1" d="M10,6.5C10,6.3,10,6.1,10.2,6c0.2-0.2,0.3-0.2,0.6-0.2s0.4,0.1,0.6,0.2c0.2,0.2,0.2,0.3,0.2,0.6
			S11.5,7,11.4,7.1S11,7.3,10.8,7.3s-0.4-0.1-0.6-0.2S10,6.8,10,6.5z"/>
		<path class="st1" d="M13.5,6.5c0-0.2,0.1-0.4,0.2-0.6c0.2-0.2,0.3-0.2,0.6-0.2s0.4,0.1,0.6,0.2c0.2,0.2,0.2,0.3,0.2,0.6
			S15.1,7,14.9,7.1s-0.3,0.2-0.6,0.2s-0.4-0.1-0.6-0.2S13.5,6.8,13.5,6.5z"/>
	</g>
	<path class="st1" d="M12.8,8c-0.1-0.1-0.1-0.1-0.2-0.2v4.8h-1.3v-4H4.7v4H3.3V3.3h7.4l1.9,1.9v0c0.1-0.1,0.1-0.1,0.2-0.2
		c0.3-0.3,0.6-0.5,1-0.6L11.3,2H2.7C2.3,2,2,2.3,2,2.7v10.7C2,13.7,2.3,14,2.7,14h10.7c0.4,0,0.7-0.3,0.7-0.7V8.6
		C13.5,8.5,13.2,8.4,12.8,8z M10,12.7H6V10h4V12.7z"/>
</g>
</svg>
